<?xml version="1.0" encoding="utf-8"?>
<!-- Generator: Adobe Illustrator 19.0.1, SVG Export Plug-In . SVG Version: 6.00 Build 0)  -->
<svg version="1.1" id="Layer_1" xmlns="http://www.w3.org/2000/svg" xmlns:xlink="http://www.w3.org/1999/xlink" x="0px" y="0px"
	 viewBox="0 0 720.5 314.2" style="enable-background:new 0 0 720.5 314.2;" xml:space="preserve">
<style type="text/css">
	.st0{fill:#FFFFFF;}
</style>
<g>
	<path class="st0" d="M25.2,140.5h7c5.4,0,9,2.4,10.8,7.3c1.8,4.9,2.7,11.7,2.7,20.6v63.7h21.7v-61.8c0-6.7-0.3-12.4-0.9-17.2
		c-0.6-4.8-1.6-8.8-3-12.2c-1.4-3.3-3.1-6-5.1-8.1c-2.1-2.1-4.7-3.8-7.7-5.3c6.3-2.5,10.6-6.9,12.7-13c2.2-6.1,3.3-13.5,3.3-22.2
		V80.9c0-6.3-0.5-12.2-1.4-17.6c-0.9-5.4-2.7-10.1-5.4-14c-2.7-3.9-6.6-6.9-11.8-9.1C43,38.1,36.3,37,28,37c-2.9,0-6.2,0.2-9.9,0.5
		c-3.7,0.4-8.6,1-14.8,1.9v192.6h21.9V140.5z M25.2,59c0.9-0.2,1.8-0.3,2.8-0.4c1-0.1,2.1-0.1,3.4-0.1c4,0,7.1,1.9,9.3,5.8
		c2.3,3.9,3.4,9.9,3.4,18v8.7c0,11.4-1.2,19.1-3.7,23.2c-2.4,4.1-6.1,6.1-11,6.1h-4.3V59z"/>
	<path class="st0" d="M115.7,234.8c20.8,0,31.2-12.6,31.2-37.9V73c0-25.1-10.5-37.7-31.4-37.7c-20.8,0-31.2,12.6-31.2,37.9v123.8
		C84.3,222.2,94.8,234.8,115.7,234.8z M106,75.8c0-8.1,0.8-13.3,2.4-15.6c1.6-2.3,4-3.4,7-3.4c3.1,0,5.5,1.1,7.2,3.4
		c1.7,2.3,2.6,7.4,2.6,15.6v118.7c0,8.1-0.8,13.3-2.4,15.6c-1.6,2.3-4,3.4-7,3.4c-3.1,0-5.5-1.1-7.2-3.4c-1.7-2.3-2.6-7.4-2.6-15.6
		V75.8z"/>
	<path class="st0" d="M198.2,234.8c20.8,0,31.2-12.6,31.2-37.9V73c0-25.1-10.5-37.7-31.4-37.7c-20.8,0-31.2,12.6-31.2,37.9v123.8
		C166.8,222.2,177.2,234.8,198.2,234.8z M188.4,75.8c0-8.1,0.8-13.3,2.4-15.6c1.6-2.3,4-3.4,7-3.4c3.1,0,5.5,1.1,7.2,3.4
		c1.7,2.3,2.6,7.4,2.6,15.6v118.7c0,8.1-0.8,13.3-2.4,15.6c-1.6,2.3-4,3.4-7,3.4c-3.1,0-5.5-1.1-7.2-3.4c-1.7-2.3-2.6-7.4-2.6-15.6
		V75.8z"/>
	<path class="st0" d="M355.8,35.4c-20.8,0-31.2,12.6-31.2,37.9v123.8c0,25.1,10.5,37.7,31.4,37.7c20.8,0,31.2-12.6,31.2-37.9V73
		C387.3,47.9,376.8,35.4,355.8,35.4z M365.6,194.4c0,8.1-0.8,13.3-2.4,15.6c-1.6,2.3-4,3.4-7,3.4c-3.1,0-5.5-1.1-7.2-3.4
		c-1.7-2.3-2.6-7.4-2.6-15.6V75.8c0-8.1,0.8-13.3,2.4-15.6c1.6-2.3,4-3.4,7-3.4c3.1,0,5.5,1.1,7.2,3.4c1.7,2.3,2.6,7.4,2.6,15.6
		V194.4z"/>
	<polygon class="st0" points="425.7,111.5 449.2,232.1 471,232.1 471,38.1 450.4,38.1 450.4,155.1 427,38.1 405.1,38.1 405.1,232.1 
		425.7,232.1 	"/>
	<path class="st0" d="M518.9,232.1c7.9,0,13.9-3.1,17.9-9.2l1.9,9.2H556V123.7h-27.6v19.5h6v62.3c-2.3,3.4-5.5,5.1-9.5,5.1
		c-3.1,0-5.5-1.1-7.2-3.4c-1.7-2.3-2.6-7.4-2.6-15.6V75.8c0-8.1,0.8-13.3,2.4-15.6c1.6-2.3,4-3.4,7-3.4c3.1,0,5.5,1.1,7.2,3.4
		c1.7,2.3,2.6,7.4,2.6,15.6v16.8H556V73c0-25.1-10.5-37.7-31.4-37.7c-20.8,0-31.2,12.6-31.2,37.9v121.1
		C493.5,219.5,501.9,232.1,518.9,232.1z"/>
	<path class="st0" d="M609.9,234.8c20.8,0,31.2-12.6,31.2-37.9V38.4h-21.7v156c0,8.1-0.8,13.3-2.4,15.6c-1.6,2.3-4,3.4-7,3.4
		c-3.1,0-5.5-1.1-7.2-3.4c-1.7-2.3-2.6-7.4-2.6-15.6v-156h-21.7v158.8C578.5,222.2,589,234.8,609.9,234.8z"/>
	<polygon class="st0" points="685.8,210.7 685.8,137.5 709.4,137.5 709.4,115.6 685.8,115.6 685.8,59.5 716.1,59.5 716.1,38.1 
		663.9,38.1 663.9,232.1 716.4,232.1 716.4,210.7 	"/>
	<path class="st0" d="M8.1,297.1L7,296.8c-0.7-0.2-1.9-0.6-1.9-1.6c0-0.9,1.1-1.4,1.8-1.4c1.1,0,2.1,0.4,2.9,1.1l1.7-3.3
		c-1.5-0.8-3.5-1.4-5.2-1.4c-3.3,0-5.7,2.2-5.7,5.5c0,3.2,1.8,3.9,4.5,4.7c0.9,0.3,2.6,0.7,2.6,1.9c0,1.2-1.1,1.7-2.1,1.7
		c-1.5,0-2.7-0.8-3.8-1.7L0,305.8c1.7,1.2,3.7,1.9,5.8,1.9c1.7,0,3.4-0.5,4.7-1.6c1.3-1.1,1.7-2.8,1.7-4.5
		C12.2,299,10.4,297.8,8.1,297.1z"/>
	<polygon class="st0" points="26.1,297.1 19.8,297.1 19.8,290.7 15.5,290.7 15.5,307.2 19.8,307.2 19.8,300.4 26.1,300.4 
		26.1,307.2 30.3,307.2 30.3,290.7 26.1,290.7 	"/>
	<path class="st0" d="M39.3,290.7L33,307.2h4.6l1.1-2.9h5.9l1.1,2.9h4.6L44,290.7H39.3z M39.8,301l1.8-5.3h0l1.8,5.3H39.8z"/>
	<path class="st0" d="M65.1,295.8c0-3.5-2.5-5.1-5.7-5.1h-6.4v16.5h4.3v-6.4h0l4.1,6.4h5.4l-5.2-6.8C63.8,300,65.1,298,65.1,295.8z
		 M57.6,298.1h-0.4V294h0.4c1.4,0,3,0.3,3,2.1C60.6,297.8,59,298.1,57.6,298.1z"/>
	<rect x="69.1" y="290.7" class="st0" width="4.3" height="16.5"/>
	<polygon class="st0" points="89.8,300.8 89.7,300.8 81.8,290.7 77.5,290.7 77.5,307.2 81.8,307.2 81.8,297.1 81.9,297.1 
		89.8,307.2 94.1,307.2 94.1,290.7 89.8,290.7 	"/>
	<path class="st0" d="M106.1,301.4h3.5c-0.2,1.9-1.6,2.9-3.5,2.9c-2.8,0-4.4-2.6-4.4-5.2c0-2.5,1.5-5.2,4.3-5.2c1.7,0,3,1.1,3.6,2.6
		l4.1-1.7c-1.4-3.1-4.1-4.6-7.5-4.6c-5.3,0-9,3.5-9,8.9c0,5.2,3.6,8.7,8.8,8.7c2.8,0,5.2-1,6.8-3.2c1.5-2.1,1.6-4.1,1.7-6.5h-8.5
		V301.4z"/>
	<path class="st0" d="M134.2,297.1l-1.1-0.3c-0.7-0.2-1.9-0.6-1.9-1.6c0-0.9,1.1-1.4,1.8-1.4c1.1,0,2.1,0.4,2.9,1.1l1.7-3.3
		c-1.5-0.8-3.5-1.4-5.2-1.4c-3.3,0-5.7,2.2-5.7,5.5c0,3.2,1.8,3.9,4.5,4.7c0.9,0.3,2.6,0.7,2.6,1.9c0,1.2-1.1,1.7-2.1,1.7
		c-1.5,0-2.7-0.8-3.8-1.7l-1.8,3.5c1.7,1.2,3.7,1.9,5.8,1.9c1.7,0,3.4-0.5,4.7-1.6c1.3-1.1,1.7-2.8,1.7-4.5
		C138.2,299,136.5,297.8,134.2,297.1z"/>
	<polygon class="st0" points="140.3,294.3 143.9,294.3 143.9,307.2 148.2,307.2 148.2,294.3 151.7,294.3 151.7,290.7 140.3,290.7 	
		"/>
	<path class="st0" d="M162.9,290.1c-4.8,0-9.1,3.5-9.1,8.5c0,5.3,3.8,9.1,9.1,9.1c5.3,0,9.1-3.8,9.1-9.1
		C172.1,293.6,167.7,290.1,162.9,290.1z M162.9,303.6c-2.6,0-4.7-2.1-4.7-4.9c0-2.3,2.1-4.4,4.7-4.4c2.6,0,4.7,2.1,4.7,4.4
		C167.6,301.5,165.5,303.6,162.9,303.6z"/>
	<path class="st0" d="M187.5,295.8c0-3.5-2.5-5.1-5.7-5.1h-6.4v16.5h4.3v-6.4h0l4.1,6.4h5.4l-5.2-6.8
		C186.2,300,187.5,298,187.5,295.8z M180.1,298.1h-0.4V294h0.4c1.4,0,3,0.3,3,2.1C183,297.8,181.5,298.1,180.1,298.1z"/>
	<rect x="191.6" y="290.7" class="st0" width="4.3" height="16.5"/>
	<polygon class="st0" points="200,307.2 209.4,307.2 209.4,303.6 204.3,303.6 204.3,300.7 209.1,300.7 209.1,297.1 204.3,297.1 
		204.3,294.3 209.4,294.3 209.4,290.7 200,290.7 	"/>
	<path class="st0" d="M220.8,297.1l-1.1-0.3c-0.7-0.2-1.9-0.6-1.9-1.6c0-0.9,1.1-1.4,1.8-1.4c1.1,0,2.1,0.4,2.8,1.1l1.7-3.3
		c-1.5-0.8-3.5-1.4-5.2-1.4c-3.3,0-5.7,2.2-5.7,5.5c0,3.2,1.8,3.9,4.5,4.7c0.9,0.3,2.6,0.7,2.6,1.9c0,1.2-1.1,1.7-2.1,1.7
		c-1.5,0-2.7-0.8-3.8-1.7l-1.8,3.5c1.7,1.2,3.7,1.9,5.8,1.9c1.7,0,3.4-0.5,4.7-1.6c1.3-1.1,1.7-2.8,1.7-4.5
		C224.8,299,223.1,297.8,220.8,297.1z"/>
	<path class="st0" d="M245.4,290.1c-4.8,0-9.1,3.5-9.1,8.5c0,5.3,3.8,9.1,9.1,9.1c5.3,0,9.1-3.8,9.1-9.1
		C254.5,293.6,250.1,290.1,245.4,290.1z M245.4,303.6c-2.6,0-4.7-2.1-4.7-4.9c0-2.3,2.1-4.4,4.7-4.4c2.6,0,4.7,2.1,4.7,4.4
		C250,301.5,247.9,303.6,245.4,303.6z"/>
	<polygon class="st0" points="257.8,307.2 262.1,307.2 262.1,300.7 266.8,300.7 266.8,297.1 262.1,297.1 262.1,294.3 267.3,294.3 
		267.3,290.7 257.8,290.7 	"/>
	<polygon class="st0" points="284.1,290.7 279.8,290.7 279.8,307.2 289.3,307.2 289.3,303.6 284.1,303.6 	"/>
	<path class="st0" d="M296.8,290.7l-6.4,16.5h4.6l1.1-2.9h5.9l1.1,2.9h4.6l-6.2-16.5H296.8z M297.4,301l1.8-5.3h0l1.8,5.3H297.4z"/>
	<polygon class="st0" points="322.6,300.8 322.6,300.8 314.7,290.7 310.4,290.7 310.4,307.2 314.7,307.2 314.7,297.1 314.8,297.1 
		322.6,307.2 326.9,307.2 326.9,290.7 322.6,290.7 	"/>
	<path class="st0" d="M339,301.4h3.5c-0.2,1.9-1.6,2.9-3.5,2.9c-2.8,0-4.4-2.6-4.4-5.2c0-2.5,1.5-5.2,4.3-5.2c1.7,0,3,1.1,3.6,2.6
		l4.1-1.7c-1.4-3.1-4.1-4.6-7.5-4.6c-5.3,0-9,3.5-9,8.9c0,5.2,3.6,8.7,8.8,8.7c2.8,0,5.2-1,6.8-3.2c1.5-2.1,1.6-4.1,1.7-6.5H339
		V301.4z"/>
	<path class="st0" d="M360.9,299.4c0,2.1-0.2,4.5-2.9,4.5s-2.9-2.3-2.9-4.5v-8.7h-4.3v9.3c0,2.1,0.1,4.2,1.7,5.8
		c1.4,1.4,3.6,1.8,5.5,1.8s4.1-0.5,5.5-1.8c1.6-1.6,1.7-3.7,1.7-5.8v-9.3h-4.3V299.4z"/>
	<path class="st0" d="M374.1,290.7l-6.4,16.5h4.6l1.1-2.9h5.9l1.1,2.9h4.6l-6.2-16.5H374.1z M374.6,301l1.8-5.3h0l1.8,5.3H374.6z"/>
	<path class="st0" d="M395.6,301.4h3.5c-0.2,1.9-1.6,2.9-3.5,2.9c-2.8,0-4.4-2.6-4.4-5.2c0-2.5,1.5-5.2,4.3-5.2c1.7,0,3,1.1,3.6,2.6
		l4.1-1.7c-1.4-3.1-4.1-4.6-7.5-4.6c-5.3,0-9,3.5-9,8.9c0,5.2,3.6,8.7,8.8,8.7c2.8,0,5.2-1,6.8-3.2c1.5-2.1,1.6-4.1,1.7-6.5h-8.5
		V301.4z"/>
	<polygon class="st0" points="407.4,307.2 416.8,307.2 416.8,303.6 411.7,303.6 411.7,300.7 416.6,300.7 416.6,297.1 411.7,297.1 
		411.7,294.3 416.8,294.3 416.8,290.7 407.4,290.7 	"/>
	<rect x="429.6" y="290.7" class="st0" width="4.3" height="16.5"/>
	<path class="st0" d="M444.1,290.7h-6.1v16.5h6.1c4.6,0,8.4-3.6,8.4-8.3C452.5,294.3,448.8,290.7,444.1,290.7z M443.3,303.6h-1v-9.3
		h1c2.8,0,4.7,1.7,4.7,4.6C448.1,302.2,445.9,303.6,443.3,303.6z"/>
	<polygon class="st0" points="455.9,307.2 465.3,307.2 465.3,303.6 460.2,303.6 460.2,300.7 465,300.7 465,297.1 460.2,297.1 
		460.2,294.3 465.3,294.3 465.3,290.7 455.9,290.7 	"/>
	<polygon class="st0" points="481.4,300.8 481.4,300.8 473.5,290.7 469.2,290.7 469.2,307.2 473.5,307.2 473.5,297.1 473.6,297.1 
		481.4,307.2 485.7,307.2 485.7,290.7 481.4,290.7 	"/>
	<polygon class="st0" points="488.6,294.3 492.1,294.3 492.1,307.2 496.4,307.2 496.4,294.3 500,294.3 500,290.7 488.6,290.7 	"/>
	<rect x="502.9" y="290.7" class="st0" width="4.3" height="16.5"/>
	<polygon class="st0" points="510,294.3 513.6,294.3 513.6,307.2 517.9,307.2 517.9,294.3 521.4,294.3 521.4,290.7 510,290.7 	"/>
	<polygon class="st0" points="530.7,295.2 527.6,290.7 522.5,290.7 528.6,299.3 528.6,307.2 532.9,307.2 532.9,299.3 538.9,290.7 
		533.8,290.7 	"/>
	<path class="st0" d="M555,290.7l-6.4,16.5h4.6l1.1-2.9h5.9l1.1,2.9h4.6l-6.2-16.5H555z M555.5,301l1.8-5.3h0l1.8,5.3H555.5z"/>
	<polygon class="st0" points="580.7,300.8 580.7,300.8 572.8,290.7 568.5,290.7 568.5,307.2 572.8,307.2 572.8,297.1 572.9,297.1 
		580.7,307.2 585,307.2 585,290.7 580.7,290.7 	"/>
	<path class="st0" d="M595.3,290.7h-6.1v16.5h6.1c4.6,0,8.4-3.6,8.4-8.3C603.7,294.3,599.9,290.7,595.3,290.7z M594.4,303.6h-1v-9.3
		h1c2.8,0,4.7,1.7,4.7,4.6C599.2,302.2,597,303.6,594.4,303.6z"/>
	<path class="st0" d="M628,295.8c0-3.5-2.5-5.1-5.7-5.1h-6.4v16.5h4.3v-6.4h0l4.1,6.4h5.3l-5.2-6.8C626.7,300,628,298,628,295.8z
		 M620.5,298.1h-0.4V294h0.4c1.4,0,3,0.3,3,2.1C623.5,297.8,621.9,298.1,620.5,298.1z"/>
	<polygon class="st0" points="632,307.2 641.4,307.2 641.4,303.6 636.3,303.6 636.3,300.7 641.2,300.7 641.2,297.1 636.3,297.1 
		636.3,294.3 641.4,294.3 641.4,290.7 632,290.7 	"/>
	<polygon class="st0" points="652.3,300.7 648.3,290.7 643.7,290.7 650.6,307.2 654,307.2 661,290.7 656.3,290.7 	"/>
	<rect x="663.4" y="290.7" class="st0" width="4.3" height="16.5"/>
	<polygon class="st0" points="682.8,290.7 678.8,300.7 674.8,290.7 670.1,290.7 677,307.2 680.4,307.2 687.4,290.7 	"/>
	<path class="st0" d="M692.7,290.7l-6.4,16.5h4.6l1.1-2.9h5.9l1.1,2.9h4.6l-6.2-16.5H692.7z M693.3,301l1.8-5.3h0l1.8,5.3H693.3z"/>
	<polygon class="st0" points="710.6,290.7 706.3,290.7 706.3,307.2 715.8,307.2 715.8,303.6 710.6,303.6 	"/>
	<polygon class="st0" points="246.8,232.1 268.6,232.1 268.6,21.2 268.6,0 246.8,0 167.6,0 167.6,21.2 246.8,21.2 	"/>
	<polygon class="st0" points="306.6,21.2 385.9,21.2 385.9,0 306.6,0 284.8,0 284.8,21.2 284.8,232.1 306.6,232.1 	"/>
	<polygon class="st0" points="347.3,274.8 391.4,246.9 387.9,246.9 343.8,274.8 	"/>
	<polygon class="st0" points="361.1,274.8 405.1,246.9 401.7,246.9 357.6,274.8 	"/>
	<polygon class="st0" points="374.8,274.8 418.9,246.9 415.4,246.9 371.3,274.8 	"/>
	<polygon class="st0" points="432.7,246.9 429.2,246.9 385.1,274.8 388.6,274.8 	"/>
	<polygon class="st0" points="398.8,274.8 402.3,274.8 446.4,246.9 442.9,246.9 	"/>
	<polygon class="st0" points="460.2,246.9 456.7,246.9 412.6,274.8 416.1,274.8 	"/>
	<polygon class="st0" points="473.9,246.9 470.5,246.9 426.4,274.8 429.8,274.8 	"/>
	<polygon class="st0" points="443.6,274.8 487.7,246.9 484.2,246.9 440.1,274.8 	"/>
	<polygon class="st0" points="501.4,246.9 498,246.9 453.9,274.8 457.3,274.8 	"/>
	<polygon class="st0" points="515.2,246.9 511.7,246.9 467.6,274.8 471.1,274.8 	"/>
	<polygon class="st0" points="481.4,274.8 484.9,274.8 528.9,246.9 525.5,246.9 	"/>
	<polygon class="st0" points="542.7,246.9 539.2,246.9 495.1,274.8 498.6,274.8 	"/>
	<polygon class="st0" points="556.5,246.9 553,246.9 508.9,274.8 512.4,274.8 	"/>
	<polygon class="st0" points="526.1,274.8 570.2,246.9 566.7,246.9 522.7,274.8 	"/>
	<polygon class="st0" points="580.5,246.9 536.4,274.8 539.9,274.8 584,246.9 	"/>
	<polygon class="st0" points="553.6,274.8 597.7,246.9 594.3,246.9 550.2,274.8 	"/>
	<polygon class="st0" points="608,246.9 563.9,274.8 567.4,274.8 611.5,246.9 	"/>
	<polygon class="st0" points="577.7,274.8 581.1,274.8 625.2,246.9 621.8,246.9 	"/>
	<polygon class="st0" points="639,246.9 635.5,246.9 591.4,274.8 594.9,274.8 	"/>
	<polygon class="st0" points="649.3,246.9 605.2,274.8 608.7,274.8 652.7,246.9 	"/>
	<polygon class="st0" points="618.9,274.8 622.4,274.8 666.5,246.9 663,246.9 	"/>
	<polygon class="st0" points="632.7,274.8 636.2,274.8 680.3,246.9 676.8,246.9 	"/>
	<polygon class="st0" points="646.5,274.8 649.9,274.8 694,246.9 690.6,246.9 	"/>
	<polygon class="st0" points="707.8,246.9 704.3,246.9 660.2,274.8 663.7,274.8 	"/>
	<polygon class="st0" points="677.4,274.8 716.3,250.2 716.3,248 674,274.8 	"/>
	<polygon class="st0" points="691.2,274.8 716.3,258.9 716.3,256.7 687.7,274.8 	"/>
	<polygon class="st0" points="704.9,274.8 716.3,267.6 716.3,265.4 701.5,274.8 	"/>
	<polygon class="st0" points="13.9,246.9 -0.7,256.1 -0.7,258.3 17.4,246.9 	"/>
	<polygon class="st0" points="27.7,246.9 -0.7,264.8 -0.7,267 31.2,246.9 	"/>
	<polygon class="st0" points="44.9,246.9 41.4,246.9 -0.7,273.5 -0.7,274.8 0.8,274.8 	"/>
	<polygon class="st0" points="55.2,246.9 11.1,274.8 14.6,274.8 58.7,246.9 	"/>
	<polygon class="st0" points="24.9,274.8 28.3,274.8 72.4,246.9 69,246.9 	"/>
	<polygon class="st0" points="42.1,274.8 86.2,246.9 82.7,246.9 38.6,274.8 	"/>
	<polygon class="st0" points="99.9,246.9 96.5,246.9 52.4,274.8 55.8,274.8 	"/>
	<polygon class="st0" points="66.1,274.8 69.6,274.8 113.7,246.9 110.2,246.9 	"/>
	<polygon class="st0" points="127.5,246.9 124,246.9 79.9,274.8 83.4,274.8 	"/>
	<polygon class="st0" points="137.7,246.9 93.6,274.8 97.1,274.8 141.2,246.9 	"/>
	<polygon class="st0" points="110.9,274.8 155,246.9 151.5,246.9 107.4,274.8 	"/>
	<polygon class="st0" points="165.2,246.9 121.2,274.8 124.6,274.8 168.7,246.9 	"/>
	<polygon class="st0" points="179,246.9 134.9,274.8 138.4,274.8 182.5,246.9 	"/>
	<polygon class="st0" points="192.8,246.9 148.7,274.8 152.1,274.8 196.2,246.9 	"/>
	<polygon class="st0" points="162.4,274.8 165.9,274.8 210,246.9 206.5,246.9 	"/>
	<polygon class="st0" points="223.7,246.9 220.3,246.9 176.2,274.8 179.6,274.8 	"/>
	<polygon class="st0" points="237.5,246.9 234,246.9 189.9,274.8 193.4,274.8 	"/>
	<polygon class="st0" points="203.7,274.8 207.2,274.8 251.2,246.9 247.8,246.9 	"/>
	<polygon class="st0" points="265,246.9 261.5,246.9 217.4,274.8 220.9,274.8 	"/>
	<polygon class="st0" points="275.3,246.9 231.2,274.8 234.7,274.8 278.8,246.9 	"/>
	<polygon class="st0" points="245,274.8 248.4,274.8 292.5,246.9 289.1,246.9 	"/>
	<polygon class="st0" points="306.3,246.9 302.8,246.9 258.7,274.8 262.2,274.8 	"/>
	<polygon class="st0" points="316.6,246.9 272.5,274.8 275.9,274.8 320,246.9 	"/>
	<polygon class="st0" points="330.3,246.9 286.2,274.8 289.7,274.8 333.8,246.9 	"/>
	<polygon class="st0" points="300,274.8 303.5,274.8 347.5,246.9 344.1,246.9 	"/>
	<polygon class="st0" points="361.3,246.9 357.8,246.9 313.7,274.8 317.2,274.8 	"/>
	<polygon class="st0" points="375.1,246.9 371.6,246.9 327.5,274.8 331,274.8 	"/>
</g>
</svg>
